<svg xmlns="http://www.w3.org/2000/svg" width="13.8" height="15.2" viewBox="0 0 13.8 15.2">
  <g id="Icon_feather-share-2" data-name="Icon feather-share-2" transform="translate(-3.9 -2.4)">
    <path id="Path_38" data-name="Path 38" d="M26.7,5.1A2.1,2.1,0,1,1,24.6,3a2.1,2.1,0,0,1,2.1,2.1Z" transform="translate(-9.6 0)" fill="none" stroke="#000" stroke-linecap="round" stroke-linejoin="round" stroke-width="1.2"/>
    <path id="Path_39" data-name="Path 39" d="M8.7,15.6a2.1,2.1,0,1,1-2.1-2.1A2.1,2.1,0,0,1,8.7,15.6Z" transform="translate(0 -5.6)" fill="none" stroke="#000" stroke-linecap="round" stroke-linejoin="round" stroke-width="1.2"/>
    <path id="Path_40" data-name="Path 40" d="M26.7,26.1A2.1,2.1,0,1,1,24.6,24,2.1,2.1,0,0,1,26.7,26.1Z" transform="translate(-9.6 -11.2)" fill="none" stroke="#000" stroke-linecap="round" stroke-linejoin="round" stroke-width="1.2"/>
    <path id="Path_41" data-name="Path 41" d="M12.885,20.265l4.781,2.786" transform="translate(-4.472 -9.208)" fill="none" stroke="#000" stroke-linecap="round" stroke-linejoin="round" stroke-width="1.2"/>
    <path id="Path_42" data-name="Path 42" d="M17.659,9.765l-4.774,2.786" transform="translate(-4.472 -3.608)" fill="none" stroke="#000" stroke-linecap="round" stroke-linejoin="round" stroke-width="1.2"/>
  </g>
</svg>
